<?xml version="1.0" encoding="UTF-8"?><svg id="Layer_1" xmlns="http://www.w3.org/2000/svg" viewBox="0 0 46.55 8.9"><rect x="6.22" y="4.12" width="34.1" height=".66" fill="#a27300"/><path d="M9.17,5.68c-.93.94-1.34,2.15-1.2,3.2,1.05.15,2.26-.26,3.2-1.2s1.34-2.15,1.2-3.2c-1.05-.15-2.26.26-3.2,1.2M12.37,4.42c.15-1.05-.26-2.26-1.2-3.2C10.24.29,9.02-.12,7.98.03c-.15,1.05.26,2.26,1.2,3.2.93.93,2.15,1.34,3.2,1.2" fill="#a27300"/><path d="M37.38,3.23c.93-.94,1.34-2.15,1.2-3.2-1.05-.15-2.26.26-3.2,1.2s-1.34,2.15-1.2,3.2c1.05.15,2.26-.26,3.2-1.2M34.18,4.48c-.15,1.05.26,2.26,1.2,3.2.93.94,2.15,1.34,3.2,1.2.15-1.05-.26-2.26-1.2-3.2-.93-.93-2.15-1.34-3.2-1.2" fill="#a27300"/><path d="M43.44,1.96c1.72,0,3.11,1.12,3.11,2.49s-1.39,2.49-3.11,2.49-3.11-1.11-3.11-2.49,1.39-2.49,3.11-2.49" fill="#a27300"/><path d="M3.11,1.96c1.72,0,3.11,1.12,3.11,2.49s-1.39,2.49-3.11,2.49S0,5.83,0,4.45,1.39,1.96,3.11,1.96" fill="#a27300"/></svg>