<?xml version="1.0" encoding="UTF-8"?><svg id="Layer_1" xmlns="http://www.w3.org/2000/svg" viewBox="0 0 383.4 155.09"><path d="M62.6,63.93h3.39v1.73h-21.43v-1.73h3.39V24.38h-3.39v-1.73h3.84c2.74-.28,5.31-1.21,7.48-2.49-.14-.02-.28,0-.42-.04-3.12-.73-4.83-4.75-3.84-8.98.99-4.23,4.32-7.07,7.44-6.34,3.12.73,4.84,4.75,3.84,8.98-.42,1.78-1.27,3.3-2.33,4.42h.01c-1.54,1.83-3.78,3.39-6.42,4.45h8.45v41.28ZM111.55,37.57c0-10.02-5.3-16-14.17-16-4.22,0-7.35,1.98-9.35,5.91v-4.82h-18.04v1.73h3.39v39.55h-3.39v1.73h21.88v-1.73h-3.84v-31.46c1.07-4.62,3.65-8.09,6.01-8.09,1.89,0,2.85,1.21,2.85,7.85v31.7h-2.19v1.73h20.24v-1.73h-3.39v-26.36ZM284.96,37.57c0-10.02-5.3-16-14.16-16-4.22,0-7.35,1.98-9.35,5.91v-4.82h-18.04v1.73h3.39v39.55h-3.39v1.73h20.24v-1.73h-2.19v-31.46c1.07-4.62,3.65-8.09,6.01-8.09,1.89,0,2.85,1.21,2.85,7.85v31.7h-2.19v1.73h20.24v-1.73h-3.39v-26.36ZM142.34,65.66v-4.81c-2.45,4.78-6.3,5.89-9.35,5.89-8.09,0-16.75-9.08-16.75-22.59s8.66-22.59,16.75-22.59c3.96,0,6.95,1.77,8.95,5.23-1.36-3.98-4.28-8.43-7.27-9.52-1.89-.69-11.95-4.07-18.7-6.16-6.56-2.03-13.52-6.24-15.88-7.78-2.36-1.55-1.36-3.82,9.35-3.24,10.7.58,19.13,8.94,22.31,11.88,5.49,5.07,8.6,8.39,10.58,12.1V5.04h-3.39v-1.73h18.04v60.62h3.39v1.73h-18.04ZM142.34,55.75v-23.18c-1.02-3.97-3.13-8.18-6.01-8.18s-4.6,2.53-4.6,15.44v8.67c0,12.91,1.69,15.44,4.6,15.44s4.99-4.21,6.01-8.18ZM23.6,26.74c-6.99-2.96-13.03-5.53-13.03-11.94,0-4.84,3.83-8.35,9.1-8.35,3.44,0,6.79.79,9.63,2.12-.2.04-.4.05-.59.12-3.76,1.3-5.37,6.49-3.61,11.59,1.76,5.1,6.24,8.19,10,6.89,3.76-1.3,5.37-6.49,3.61-11.59-.74-2.15-1.98-3.91-3.44-5.17h.01c-3.53-3.41-9.27-5.68-15.61-5.68C7.72,4.72,0,11.86,0,22.89s9.02,14.8,17.74,18.44c7.64,3.19,14.86,6.2,14.86,13.99,0,6.08-5.05,9.85-13.19,9.85-3.16,0-6.35-.78-9.13-2.11.21-.05.42-.05.63-.12,3.76-1.3,5.37-6.49,3.61-11.59-1.76-5.1-6.24-8.19-10-6.89-3.76,1.3-5.37,6.49-3.61,11.59.56,1.61,1.41,2.99,2.4,4.13h-.05c.1.1.21.2.31.3.24.25.48.48.74.71,3.7,3.38,9.3,5.72,15.11,5.72,12.33,0,22.75-8.85,22.75-19.33,0-12.96-9.87-17.14-18.57-20.84ZM217.21,78.76c-9.32-5.07-20.76-2.4-24.97-1.58-3.6.7-6.47,1.35-8.9,2.07.95-1,2.37-1.68,3.4-1.86,1.59-.28,10.59-1.7,19.09-7.79.27-.19.22-.62-.09-.74-1.69-.66-6.3-1.95-11.74.85-5.99,3.08-9.75,6.88-11.71,9.89-1.51.49-2.85,1.04-4.08,1.67,1.41-1.96,2.42-4.29,3.23-6.63l17.52-50.26h3.74v-1.73h-8.42v1.73h2.79l-7.43,21.32-9-21.32h3.28v-1.73h-23.32v1.73h3.78l17.99,42.39-2.67,7.43c-2.26,6.27-4.85,10.16-10.72,10.16-.75,0-1.44-.09-2.1-.22,2.63-.71,5.2-3,6.63-6.31,2.14-4.96.91-10.25-2.74-11.83-3.65-1.57-8.34,1.17-10.48,6.13-1.48,3.43-1.31,6.99.12,9.4,0,.03,0,.07.01.1,1.44,2.43,4.07,4.45,8.56,4.45,2.98,0,5.23-.94,7.01-2.4,0,0,.06-.01.06-.01,3.18-3.07,8.44-4.05,10.98-3.54,3.05.62,6.01,1.65,9.03,2.44.62.16,1.24.32,1.86.47,6.6,1.63,15.82,2.58,18.61,2.51,2.79-.08,10-1.71.69-6.78ZM383.4,59.26l-.13.77c-.75,4.33-3.65,6.72-8.15,6.72-5.65,0-10.58-2.81-12.42-6.81-1.5,3.58-5.13,6.81-11.64,6.81-7.09,0-12.04-4.62-12.04-11.25,0-7.19,5.67-11.51,11.29-12.61,2.13-.43,3.36-.52,4.35-.6.94-.07,1.62-.12,2.68-.43,1.8-.49,3.19-2.16,4.45-3.88v-8.04c0-4.45-1.9-6.35-6.35-6.35-1.2,0-2.42.21-3.61.53.36.13.72.29,1.05.52,2.97,2,3.18,6.9.45,10.94-2.72,4.04-7.34,5.69-10.31,3.68-2.97-2.01-3.18-6.9-.45-10.94.79-1.17,1.75-2.11,2.77-2.85,3.15-2.46,7.49-3.85,11.06-3.85,12.36,0,20.04,5.89,20.04,15.37v21.76c0,4.26,1.83,4.26,2.51,4.26,1.35,0,2.13-.97,2.61-3.23l.11-.52h1.73ZM361.78,40.88c-1.25,1.48-2.4,2.3-3.85,3.13-2.87,1.59-4.26,3.9-4.26,7.06v6.84c0,4.36.53,5.76,2.18,5.76,3.22,0,5.93-4.54,5.93-7.39v-15.4ZM243.51,60.03c-.75,4.33-3.65,6.72-8.15,6.72-5.65,0-10.58-2.81-12.42-6.81-1.5,3.58-5.13,6.81-11.64,6.81-7.09,0-12.04-4.62-12.04-11.25,0-7.19,5.67-11.51,11.29-12.61,2.13-.43,3.36-.52,4.35-.6.94-.07,1.62-.12,2.68-.43,1.8-.49,3.19-2.16,4.45-3.88v-8.04c0-4.45-1.9-6.35-6.35-6.35-1.2,0-2.42.21-3.61.53.36.13.72.29,1.05.52,2.97,2,3.18,6.9.45,10.94-2.72,4.04-7.34,5.69-10.31,3.68-2.97-2.01-3.18-6.9-.45-10.94.79-1.17,1.75-2.11,2.77-2.85,3.15-2.46,7.49-3.85,11.06-3.85,12.36,0,20.04,5.89,20.04,15.37v21.76c0,4.26,1.83,4.26,2.51,4.26,1.35,0,2.13-.97,2.61-3.23l.11-.52h1.73l-.13.77ZM222.03,40.88c-1.25,1.48-2.4,2.3-3.85,3.13-2.87,1.59-4.26,3.9-4.26,7.06v6.84c0,4.36.53,5.76,2.18,5.76,3.22,0,5.93-4.54,5.93-7.39v-15.4ZM338.07,23.15c2.07-1.09,4.25-1.98,6.36-3,.43-.21.86-.42,1.29-.63,4.58-2.28,10.32-6.22,11.88-7.63,1.56-1.4,4.9-5.85-2.91-4.22-7.81,1.63-13.07,8.73-15.08,11.25-1.72,2.15-3.05,3.92-4.09,5.52.06-1.04.54-2.12,1.04-2.72.78-.94,5.24-6.13,7.14-13.76.06-.24-.17-.46-.41-.38-1.29.44-4.56,1.95-6.31,6.2-1.93,4.68-2.24,8.69-1.89,11.37-1.12,1.84-1.87,3.49-2.32,5.28-1.99-5.64-6.54-8.87-13.02-8.87-4.22,0-7.35,1.98-9.35,5.91v-4.82h-18.04v1.73h3.39v39.55h-3.39v1.73h21.88v-1.73h-3.84v-31.46c1.07-4.62,3.65-8.09,6.01-8.09,1.89,0,2.85,1.21,2.85,7.85v31.7h-2.19v1.73h20.24v-1.73h-3.39v-26.36c0-1.39-.12-2.68-.32-3.91.03.07.04.11.04.11-.33-3.21,1.65-9.14,4.44-10.61Z" fill="#1d1d1b"/><path d="M175.21,111.3l5.76-.86v34.05h-5.76v-33.19ZM145.71,94.23h2.13v-2.29h-7.46v11.83h8.29l-1.76,36.27h-4.99v4.44h5.09c-1.96.78-3.14,2.44-3.94,3.93-.52.96-.9,2.2-.9,3.09-.01,1.97,1.16,3.58,2.61,3.59,1.45,0,2.64-1.58,2.65-3.56.01-1.97-1.16-3.58-2.61-3.59-.07,0-.14,0-.21.01.53-1.57,3.64-3.24,5.05-3.63,1.41-.39,2.58-1.78,2.58-3.35l2.04-41.72h-8.57v-5.02ZM117.96,94.23h2.13v-2.29h-7.46v11.83h8.29l-1.76,36.27h-4.99v4.44h6.67c1.97,0,3.65-1.58,3.65-3.51l2.04-41.72h-8.57v-5.02ZM130.6,123.7l5.76-1.07v-23.37h-5.76v24.44ZM165.94,99.26h-5.51v-2.13h-2.29v6.64h5.27v36.27h-6.46l-1.83,4.44h6.67l1.69-3.58.98,3.58h4.29v-42.36c0-1.94-.63-2.87-2.81-2.87ZM244.69,97.13h-2.29v2.13h.02s-.02.01-.02.01v37.55c0,1.86-.42,3.22-2.39,3.22h-2.25v-40.77h-3.47v-2.14h-2.29v2.13h.02s-.02.01-.02.01v38.05l2.18,2.72h-5.2v4.44h12.08c4.85,0,7.02-3.3,7.02-9.1v-36.11h-3.4v-2.14ZM263.18,99.26v-2.13h-2.29v6.64h4.2l-.07,32.4c0,3.44-.98,3.87-3.72,3.87h-1.12l-1.97-40.78h-3.4v-2.13h-2.29v2.13l2.46,45.23h6.81c6.81,0,8.99-3.01,8.99-8.67v-36.56h-7.6ZM188.91,99.27h-1.14s-10.56-.01-10.56-.01v-2.13h-2.29v6.64h11.45v40.71h5.76v-41.85c0-1.86-1.47-3.37-3.23-3.37ZM224.71,102.64v41.85h-17.49v-45.21h.01-.01v-2.14h2.29v2.14h11.97c1.76,0,3.23,1.5,3.23,3.37ZM219.23,103.78h-6.25v36.26h6.25v-36.26Z" fill="#1d1d1b"/></svg>