<?xml version="1.0" encoding="UTF-8"?><svg id="Layer_1" xmlns="http://www.w3.org/2000/svg" viewBox="0 0 157.6 170.02"><path d="M35.76,146.63h-2.35v-8.74h-6.69l.34,6.07-.59,2.57-2.64.1h-2.04l.48-2.37,2.44-.09-.27-5.09,1.73-1.19-3.12-.31.58-2.06h11.9l.22,2.69v8.42Z" fill="#a27300"/><path d="M42.13,146.63h-2.36v-8.74l-2.24-.29.6-2.08h4v11.12Z" fill="#a27300"/><path d="M54.29,146.63h-2.35v-8.74h-5.67l-2.19-.29.62-2.08h9.42l.18,2.57v8.55Z" fill="#a27300"/><path d="M68.18,135.6l-.89,5.26-2.14,1.28,2.54,1.72-.27,2.78h-10.98l.56-2.35,2.44-.09h5.23l-4.02-2.23-2.5-4.07-2.12-.25.58-2.12h3.19l2.92,5.09,2.14,1.34.65-4.05-1.94-.27.56-2.1h4.04v.08Z" fill="#a27300"/><path d="M74.27,146.63h-2.36v-8.74l-2.24-.29.6-2.08h4v11.12Z" fill="#a27300"/><path d="M80.59,141.69h-2.38v-3.78l-2.2-.21.6-2.19h3.98v6.18Z" fill="#a27300"/><path d="M101.05,146.63h-11.56v-7.43l1.78-1.32-2.4-.29.58-2.08h11.6v11.12ZM98.72,137.89h-6.93l.02,6.33h6.91v-6.33Z" fill="#a27300"/><path d="M107.37,141.69h-2.38v-3.78l-2.2-.21.6-2.19h3.98v6.18Z" fill="#a27300"/><path d="M124.5,135.52l-.52,7.92-.94,2.73-5.25.47h-7.25l-.29-8.76-1.35-.25.58-2.1h3.15l.18,8.65h3.03l.2-6.3-1.48-.25.61-2.1h3.33l-.42,7.47-1.75,1.18,2.04.02,3.22-.35.32-5.97-1.41-.23.58-2.12h3.43Z" fill="#a27300"/><path d="M132.83,143.96l-.75,2.53-3.97.15h-2.06l.52-2.41,3.92-.14-.37-6.19-2.8-.23.58-2.14h4.56l.21,6.13.16,2.31Z" fill="#a27300"/><path d="M30.67,170.02h-3.16v-13.26h-4.56l-.2,1.86h2.66l-.59,2.73-3.89.04-1.63-.25.55-3.6,2.2-.87-2.88-.4.79-2.57h10.72v16.32Z" fill="#a27300"/><path d="M46.49,164.82h-3.16v-8.06h-5.77l.34,4.99-.61,2.97-3.12.1h-2.4l.6-3.03,2.32-.08-.23-4.13,2.27-.83-3.69-.32.71-2.71h12.52l.22,3.05v8.06Z" fill="#a27300"/><path d="M52.84,164.82h-3.16v-8.06l-2.08-.34.75-2.71h4.49v11.12Z" fill="#a27300"/><path d="M70.41,153.7l-.54,7.25-1.03,3.4-5.41.47h-7.77l-.29-8.06-1.43-.34.75-2.71h3.73l.2,8h2.44l.18-4.94-1.41-.34.73-2.71h3.93l-.42,6.91-2.13,1.09h2.1l2.8-.3.28-4.64-1.35-.34.75-2.71h3.91Z" fill="#a27300"/><path d="M85.55,161.66l-.87,3.08-4.6.08h-3.5l.87-3.05,5.17-.08-.25-4.92h-5.18l-.75.17-1.52,7.89h-2.81l1.04-8.08-1.77-.32.75-2.71h4.35v2.16l2.73-2.16h6.25l.08,7.96Z" fill="#a27300"/><path d="M105.63,153.7l-.56,2.71-1.53.34v8.06h-3.16v-7.05l2.29-1.02h-6.15l-3.12-.34.75-2.71h11.49Z" fill="#a27300"/><path d="M111.55,160.08h-3.14v-1.5l.16-1.82-2.23-.34.75-2.71h4.47v6.38Z" fill="#a27300"/><path d="M127.16,164.82h-3.16v-8.06h-5.77l.34,4.99-.61,2.97-3.12.1h-2.4l.6-3.03,2.32-.08-.23-4.13,2.27-.83-3.69-.32.71-2.71h12.52l.22,3.05v8.06Z" fill="#a27300"/><path d="M142.2,153.7v.67l-.64,6.84-1.38,3.33-4.1.28h-7.84l.67-3.1,3.3-.06-.46-4.9-2.54-.3.71-2.76h4.7l.48,6.87-2.13,1.05h3.39l2.28-.24.37-4.68-2.4-.24.75-2.76h4.87Z" fill="#a27300"/><path d="M95.04,104.77c0-.31-.01-.62,0-.93,0-.11.08-.29.15-.31.09-.03.29.04.34.12.27.51.56,1.02.74,1.56.1.32-.16.54-.52.5-.42-.05-.79-.5-.71-.94Z" fill="#a27300"/><path d="M111.48,122.46c.17-.22.3-.51.52-.64.31-.18.68-.28,1.03-.34.06-.01.29.37.25.51-.19.69-1.3.95-1.8.47Z" fill="#a27300"/><path d="M103.69,106.69c.15.52-.11.91-.55.91-.4,0-.64-.24-.67-.65-.03-.41.37-.89.73-.78.26.08.41.23.49.53Z" fill="#a27300"/><path d="M96.93,106.68c.16-.46.55-.62.88-.38.3.21.35.52.17.84-.19.33-.73.47-.95.2-.15-.19-.19-.39-.1-.65Z" fill="#a27300"/><ellipse cx="91.24" cy="98.63" rx=".32" ry=".49" transform="translate(-40.85 74.04) rotate(-36.68)" fill="#a27300"/><ellipse cx="84.82" cy="82.49" rx=".33" ry=".34" fill="#a27300"/><ellipse cx="86.77" cy="76.84" rx=".33" ry=".34" fill="#a27300"/><path d="M121.22,81.74c.46-.18.73.29.67.63-.05.26-.23.69-.53.7-.34.01-.59-.47-.65-.76-.05-.2.35-.51.51-.57Z" fill="#a27300"/><path d="M112.24,118.36c-.39-.1-.58-.25-.37-.59.22-.35.43-.77.95-.69.17.02.4.13.45.26.06.13-.01.42-.12.51-.27.21-.61.35-.91.52Z" fill="#a27300"/><path d="M112.04,114.01c-.08-.08-.33-.23-.36-.41-.06-.34.57-.79,1.03-.73.17.02.41.22.44.38.07.29-.56.76-1.11.76Z" fill="#a27300"/><path d="M111.17,126.58c-.03-.72.16-1.1.62-1.27.17-.06.41.06.62.09-.05.23-.02.55-.16.66-.27.22-.64.32-1.08.52Z" fill="#a27300"/><path d="M108,103.33c0,.46-.32.48-.65.45-.1,0-.28-.23-.3-.39-.04-.35.19-.63.53-.58.18.03.43.13.43.52Z" fill="#a27300"/><path d="M66.91,64.09c-1.83-.13-3.17-.92-4.05-2.53-.55-1.01-1.19-1.98-1.81-2.95-.25-.39-.19-.75.1-1.06.31-.35.61-.11.93.06,1.12.58,2.24,1.17,3.39,1.68,1.7.76,3.5.98,5.35.86.23-.01.46-.02.69.02.46.09.68.62.34.91-1,.87-1.99,1.75-3.08,2.48-.51.34-1.23.36-1.85.53ZM63.57,60.3c.92,1.3,1.92,2.38,3.66,2.32.78-.03,1.42-.27,1.94-.91-1.89-.48-3.72-.94-5.6-1.41Z" fill="#a27300"/><path d="M65.83,48.33c-1.21,1.22-2.45,1.13-3.47-.17-.1-.13-.34-.2-.52-.23-.42-.07-.99.05-1.1-.51-.11-.54.4-.72.8-.92,1.39-.69,2.8-.57,4.17.03.84.36,1.41,1.07,1.66,1.98.06.24-.09.53-.15.8-.26-.08-.56-.09-.77-.24-.24-.17-.4-.46-.62-.73Z" fill="#a27300"/><path d="M62.92,44.93c-.37.07-.96.18-1.54.28-.21.04-.43.13-.62.09-.21-.04-.4-.21-.61-.32.13-.22.21-.56.39-.63.64-.24,1.31-.45,1.99-.55,2.09-.31,3.99.26,5.76,1.35.23.14.46.39.54.64.09.26.1.74-.05.84-.24.16-.67.2-.94.08-.5-.22-.95-.58-1.42-.88-1.01-.65-2.13-.84-3.51-.9Z" fill="#a27300"/><path d="M95.48,64.26c-1.7,0-2.83-.63-3.73-1.75-.37-.46-.78-.91-1.12-1.4-.37-.53-.16-.94.5-.93.5,0,.99.14,1.48.16,2.17.05,4.27-.3,6.29-1.11.4-.16.73-.48,1.09-.74.34-.25.71-.23.92.07.15.22.22.69.09.87-.87,1.23-1.78,2.42-2.72,3.6-.78.97-1.93,1.1-2.81,1.23ZM98.3,61.03c-1.89.24-3.69.47-5.56.71.74.9,1.63,1.21,2.69,1.12,1.24-.11,2.23-.62,2.87-1.83Z" fill="#a27300"/><path d="M97.35,49.55c-.24.22-.46.47-.73.63-.17.11-.49.19-.6.1-.13-.1-.2-.42-.15-.61.2-.77.78-1.23,1.41-1.61,1.54-.94,3.9-.53,5.05.86.1.12.21.34.16.45-.04.11-.29.22-.42.2-.72-.13-1.21.03-1.78.63-.82.87-2.16.49-2.95-.65Z" fill="#a27300"/><path d="M144.7,74.16c.16-1.37.25-2.76.57-4.08.54-2.24,1.89-3.91,3.84-5.17,2.35-1.52,4.18-3.6,5.5-6.09.83-1.57,1.64-3.17,2.01-4.94.37-1.77.7-3.54.96-5.33.13-.86-.16-1-.94-.62-.03.02-.07.04-.1.06-1.92,1.02-3.59,2.37-5.08,3.96-1.86,1.99-3.3,4.25-4.22,6.81-.69,1.92-1.15,3.91-1.32,5.96-.06.73-.29,1.39-.91,1.97-.03-.27-.05-.45-.08-.64-.29-2.41-.57-4.82-.88-7.23-.24-1.83-.61-3.66-.05-5.49.26-.86.52-1.75.95-2.54.35-.65.94-1.16,1.43-1.73,2.21-2.59,3.22-5.66,3.55-9,.24-2.46-.09-4.89-.43-7.32-.09-.63-.54-.79-1.04-.41-.11.08-.2.18-.3.27-1.39,1.39-2.44,3.04-3.4,4.75-1.27,2.26-1.87,4.73-1.95,7.31-.06,1.94.11,3.88.14,5.82,0,.9-.1,1.8-.15,2.71-.06,0-.11,0-.17,0-.05-.14-.09-.29-.14-.43-.93-2.59-1.8-5.2-2.82-7.76-.64-1.61-1.41-3.18-1.38-4.94.02-1.27.04-2.59.37-3.81.51-1.87,1.33-3.64,1.92-5.49.57-1.77.72-3.6.55-5.47-.16-1.75-.68-3.39-1.23-5.02-.31-.94-.72-1.85-1.17-2.72-.16-.31-.58-.61-.92-.66-.43-.06-.63.36-.8.77-.74,1.82-1.34,3.68-1.66,5.63-.37,2.27-.68,4.53-.49,6.84.18,2.25.99,4.34,1.58,6.49.25.9.72,1.76.43,2.81-.15-.19-.28-.33-.39-.48-1.55-2.29-3.11-4.58-4.64-6.88-.66-1-1.34-2-1.88-3.06-.41-.79-.78-1.63-.65-2.61.2-1.56.33-3.13.51-4.69.36-2.99-.61-5.69-1.91-8.27-.56-1.11-1.35-2.11-2.11-3.11-.49-.64-1.08-1.2-1.67-1.75-.36-.34-.71-.22-.82.23-.13.53-.28,1.06-.31,1.6-.22,4.12.15,8.12,2.28,11.78.8,1.38,1.53,2.81,2.28,4.22.1.18.13.4.2.6-.04.02-.08.03-.12.05-1.98-1.85-3.95-3.69-5.87-5.48-.28.1-.46.16-.63.22-.02-.04-.04-.08-.06-.12.1-.12.21-.24.32-.37-.07-.08-.12-.14-.17-.2-1.25-1.18-2.09-2.55-2.23-4.33-.09-1.18-.29-2.35-.42-3.52-.2-1.74-1.06-3.2-1.99-4.6-1.41-2.11-3.15-3.9-5.26-5.31-.73-.49-.97-.43-.94.45.04,1.39.1,2.81.39,4.17.74,3.56,2.55,6.53,5.26,8.94.08.08.15.17.3.34-.85-.46-1.59-.85-2.33-1.25-1.74-.95-3.45-1.95-5.21-2.85-1.16-.6-2.01-1.43-2.65-2.57-.92-1.63-1.73-3.33-3.1-4.66-1.81-1.76-3.78-3.25-6.12-4.26-2.07-.89-4.23-1.26-6.43-1.49-.78-.08-1.08.38-.68,1.07.56.97,1.13,1.95,1.8,2.84,1.83,2.43,4.31,4.06,6.91,5.52,1.31.73,2.71,1.3,3.79,1.81-2.01-.18-4.3-.38-6.6-.6-1-.09-1.94-.31-2.47-1.33-.09-.18-.28-.31-.44-.45-2.38-2.09-6.08-1.83-8.34-.68-1.55.79-1.69,2.49-.26,3.47.83.56,1.79,1.03,2.76,1.26,2.18.52,4.32.3,6.26-.99,1.02-.68,2.04-.08,3.07-.06-.12.12-.24.17-.36.21-1.29.36-2.52.91-3.53,1.78-1.82,1.55-2.68,3.6-2.61,6.02,0,.18.36.5.55.5.57,0,1.16-.04,1.7-.19,1.54-.45,2.9-1.23,3.99-2.43,1.02-1.12,1.7-2.39,1.69-3.96,0-1.48.29-1.8,1.76-1.78.75,0,1.49.12,2.24.19,2.27.22,4.41.93,6.46,1.87,1.69.77,3.29,1.75,4.91,2.66.5.28.96.64,1.44.97-.03.07-.05.13-.08.2-.69-.13-1.41-.18-2.07-.4-1.59-.54-3.2-.96-4.88-1.09-2.5-.19-4.93.07-7.09,1.51-.77.51-1.49,1.1-2.18,1.71-.46.4-.35.87.17,1.01,2.49.71,4.98,1.3,7.61,1.14,2.12-.13,4.14-.65,5.85-1.9,1.35-1,2.76-1.07,4.21-.73,1.49.35,2.68,1.35,3.88,2.29.2.16.5.21.72.29.12.19.23.45.42.63.53.52,1.12.98,1.65,1.51,1.15,1.17,2.29,2.35,3.41,3.54.5.53.95,1.1,1.42,1.66-.06.07-.13.14-.19.21-.97-.7-1.96-1.39-2.92-2.12-1.6-1.2-3.4-1.96-5.3-2.47-.96-.26-1.97-.3-2.96-.41-2.15-.24-4.26-.08-6.32.64-.64.23-.76.65-.26,1.11.2.18.42.35.65.48,1.22.66,2.42,1.34,3.67,1.94,3.58,1.72,7.36,2.27,11.29,1.87.34-.03.7-.06,1.03,0,1.9.41,3.61,1.16,4.76,2.87,1.2,1.79,2.46,3.55,3.65,5.35.63.95,1.16,1.97,1.73,2.96-.05.03-.1.07-.15.1-.71-.24-1.25-.7-1.7-1.3-1.47-1.92-3.12-3.62-5.32-4.71-2.59-1.28-5.28-1.56-8.08-1.01-.79.16-.92.48-.5,1.2.33.57.7,1.11,1.09,1.64,1.69,2.31,3.94,3.73,6.78,4.07,1.49.17,2.99.15,4.48.28.5.04,1.04.17,1.45.43.97.62,1.89,1.32,2.79,2.04.39.32.75.74.98,1.18,1.26,2.39,2.1,4.95,2.81,7.56.18.66.25,1.34.38,2.07-.81-.74-1.59-1.39-2.31-2.12-.28-.28-.56-.72-.57-1.09-.06-1.34-.59-2.48-1.35-3.53-1.42-1.96-3.34-3.12-5.74-3.23-1.91-.08-3.28,1.01-2.84,3.29.45,2.35,2.03,3.83,4,4.9,1.44.78,3.01.83,4.62.68.38-.03.89.09,1.15.34,1.23,1.19,2.41,2.44,3.55,3.71.31.34.56.83.63,1.29.29,1.8.56,3.61.71,5.43.14,1.65.13,3.31.15,4.96.01,1.07-.05,2.15-.08,3.22-.74-.73-.8-1.62-.83-2.5-.14-3.13-1.01-6-2.88-8.52-1.29-1.73-2.94-3.05-4.87-4-.64-.32-.92-.09-.9.65.06,2.02.4,4,1.1,5.88,1.01,2.7,2.68,4.95,4.83,6.86.69.61,1.43,1.21,1.94,1.96,1.06,1.56,1.07,3.36.84,5.17-.4,3.09-1.14,6.1-2.08,9.06-.17.54-.42,1.06-.63,1.59-.03,0-.07-.01-.1-.02-.01-.07-.02-.13-.03-.2-.21-2.83-.5-5.65-1.28-8.39-.93-3.24-2.46-6.1-5.2-8.16-.71-.54-1.01-1.11-.91-2.05.3-2.72-.43-5.08-2.66-6.82-1.19-.93-1.62-2.17-1.49-3.65.15-1.7-.17-3.31-1.11-4.73-.81-1.22-1.74-2.37-2.65-3.51-1.04-1.29-2.29-2.42-2.95-3.99-.75-1.78-1.5-3.57-2.19-5.38-1.61-4.21-3.75-8.07-6.93-11.29-2.85-2.89-6.27-4.54-10.29-4.94-2.87-.29-5.68.1-8.43.91-1.8.52-3.53,1.19-4.88,2.59-.63.65-1.28,1.29-1.98,1.86-2.61,2.1-4.15,4.83-4.74,8.13-.05.3-.1.59-.15.89-.13-.09-.16-.16-.17-.23-.02-.15-.03-.31-.06-.46-.35-1.97-.75-3.94-1.73-5.7-1.4-2.51-3.27-4.54-5.98-5.65-.28-.12-.53-.31-.79-.47-.81-.48-1.58-1.04-2.43-1.44-3.08-1.45-6.3-1.87-9.67-1.24-3.08.58-5.78,1.94-8.15,3.97-2.03,1.74-3.73,3.81-5.19,6.06-1.42,2.2-3.14,3.98-5.46,5.2-1.97,1.04-3.2,2.68-3.35,5.03-.07,1.05-.16,2.11-.41,3.12-.36,1.46-1.48,2.3-2.71,3.03-1.41.83-2.73,1.76-3.39,3.37-.53,1.29-.58,2.65-.62,4.01-.05,1.6-.58,2.95-1.9,3.93-.79.59-1.59,1.18-2.28,1.87-1.2,1.21-1.56,2.8-1.59,4.44-.02.92-.34,1.52-1.06,2.05-.66.49-1.29,1.06-1.8,1.7-2.12,2.61-3.16,5.69-3.57,8.98-.28,2.27-.31,4.58-.43,6.87-.04.86,0,1.73,0,2.59-.19-.11-.28-.23-.33-.36-.41-1.07-.82-2.14-1.23-3.21-1.27-3.32-2.1-6.76-2.41-10.3-.07-.86-.02-1.76.17-2.6.36-1.61,1.66-2.55,2.73-3.66,1.13-1.16,2.34-2.29,3.2-3.64,1.76-2.75,2.46-5.88,2.55-9.15.01-.52-.21-.7-.68-.5-.56.24-1.11.53-1.62.87-2.41,1.6-4.11,3.76-5.12,6.5-.68,1.84-.88,3.74-.87,5.67,0,.87-.35,1.52-1.03,2.2-.08-.58-.17-1.07-.2-1.56-.19-3.96.13-7.9.65-11.82.05-.39.23-.79.43-1.13,1.02-1.83,2.58-3.18,4.12-4.52.21-.19.61-.26.91-.22,2.75.38,5.1-.45,7.07-2.38.97-.95,1.63-2.1,1.73-3.53.08-1.14-.37-2.13-1.26-2.46-.51-.19-1.08-.31-1.63-.3-3.42.08-6.96,3.01-7.06,6.78,0,.27-.11.61-.3.78-.87.81-1.78,1.57-2.73,2.39.03-.24.04-.43.09-.61.64-2.14,1.22-4.3,1.95-6.41.38-1.11.83-2.29,1.58-3.15,1.67-1.92,3.63-3.36,6.42-3.19,1.88.12,3.75-.3,5.51-1.07,2.26-.99,3.89-2.66,5.14-4.76.46-.78.31-1.18-.55-1.34-4.5-.8-8.37.39-11.52,3.8-.62.67-1.16,1.4-1.76,2.09-.49.56-1.06,1.02-1.87,1.36.11-.23.15-.33.2-.43,1.43-2.9,3.22-5.58,5.13-8.16,1.71-2.3,4.07-3.29,6.94-2.95,2.9.34,5.73-.07,8.47-1.03,2.13-.74,4.09-1.85,5.98-3.08.25-.16.52-.57.48-.81-.04-.25-.42-.56-.71-.63-.98-.24-1.98-.43-2.98-.55-4.57-.54-8.68.61-12.32,3.5-.74.59-1.56,1.06-2.34,1.58-.03-.04-.07-.08-.1-.13.42-.54.8-1.14,1.28-1.62,2.31-2.31,4.58-4.66,7.15-6.68,1.41-1.1,2.86-2.12,4.79-2,1.04.06,1.98.27,2.66,1.14.09.12.24.2.37.26,1.76.75,3.54,1.37,5.48,1.45,2.62.12,5.1-.57,7.61-1.18.61-.15.72-.66.21-1.08-.75-.63-1.51-1.29-2.36-1.75-3.22-1.71-6.63-1.78-10.1-.99-.69.16-1.33.54-2,.83-.66.28-1.33.31-2.13.18.15-.14.19-.21.26-.24,1.34-.78,2.65-1.61,4.03-2.32,2.49-1.28,5.05-2.4,7.83-2.87,1.22-.21,2.48-.25,3.72-.23.78.01,1.11.54,1.17,1.32.03.48.09.97.2,1.44.7,3.17,4.55,5.52,7.56,5.37.54-.03.69-.33.69-.8.05-2.9-2.41-6.2-5.16-6.96-.65-.18-1.28-.4-1.92-.6.93-.27,1.84-.52,2.72-.05,1.76.94,3.61,1.37,5.61,1.17,1.51-.15,2.88-.64,4.08-1.6.9-.72,1.04-1.75.32-2.55-.37-.4-.84-.76-1.33-.99-1.54-.7-3.17-.74-4.81-.51-1.46.2-2.89.69-3.74,1.95-.61.91-1.39,1.07-2.29,1.17-1.43.15-2.88.24-4.31.39-.81.08-1.61.24-2.32.35,1.4-.7,2.92-1.35,4.33-2.18,1.25-.74,2.48-1.57,3.55-2.55,1.16-1.06,2.17-2.29,3.15-3.53.54-.69.92-1.52,1.29-2.32.26-.57.03-.91-.58-.84-1.35.14-2.71.31-4.04.58-2.61.51-4.86,1.78-6.82,3.57-.6.54-1.22,1.07-1.75,1.68-1.37,1.57-2.35,3.4-3.36,5.21-.27.49-.68.96-1.14,1.28-1.5,1.05-3.26,1.67-4.72,2.82-.8.62-1.76,1.04-2.65,1.53-.39.21-.8.38-1.2.57,0-.19.07-.28.15-.35,1.07-1.03,2.22-1.99,2.94-3.33.69-1.29,1.44-2.56,1.98-3.92.38-.96.5-2.03.65-3.06.13-.92.17-1.86.18-2.79,0-.27-.22-.54-.34-.81-.26.12-.52.23-.77.36-.1.05-.18.15-.27.21-1.79,1.2-3.19,2.8-4.44,4.53-1.09,1.51-2.09,3.08-2.31,5.02-.15,1.31-.42,2.61-.55,3.92-.15,1.49-.64,2.8-1.78,3.8-.43.38-.94.68-1.35,1.08-1.65,1.62-3.28,3.27-4.92,4.91-.12.12-.24.24-.37.36-.05-.04-.1-.08-.15-.13.34-.64.69-1.28,1.01-1.93.88-1.75,1.91-3.45,2.56-5.28.61-1.7.92-3.53,1.18-5.33.26-1.77.24-3.58-.18-5.34-.06-.27-.27-.63-.48-.7-.21-.06-.59.13-.76.33-.95,1.12-1.94,2.22-2.75,3.43-1.4,2.09-2.44,4.35-2.75,6.92-.24,1.97.05,3.89.36,5.8.34,2.07-.06,3.95-1.21,5.67-1.76,2.64-3.55,5.27-5.33,7.9-.23.34-.47.67-.71,1.01-.22-.96-.07-1.85.28-2.69.73-1.75,1.17-3.57,1.45-5.44.38-2.5.45-4.99-.05-7.48-.44-2.21-.81-4.44-1.88-6.47-.4-.76-1.16-.84-1.63-.13-.13.19-.24.4-.33.61-.95,2.1-1.62,4.29-2.03,6.56-.32,1.78-.21,3.57.12,5.34.4,2.15,1.21,4.18,2.07,6.17,1.01,2.34.8,4.69.01,6.99-1,2.94-2.13,5.84-3.2,8.75-.17.46-.33.92-.49,1.38-.05,0-.11-.01-.16-.02-.1-.8-.27-1.6-.28-2.4,0-1.63.13-3.27.13-4.9.01-4.19-1.24-7.97-3.76-11.29-.58-.77-1.23-1.49-1.92-2.16-.53-.51-1.09-.24-1.15.49-.13,1.43-.33,2.87-.35,4.3-.03,1.63-.05,3.28.2,4.88.44,2.81,1.87,5.2,3.72,7.26,2.01,2.23,2.72,4.77,2.36,7.68-.32,2.59-.66,5.17-.98,7.76-.09.7-.15,1.41-.22,2.11-.05.01-.1.03-.15.04-.27-.58-.64-1.14-.79-1.76-.31-1.26-.5-2.55-.76-3.83-.49-2.39-1.49-4.6-2.77-6.63-1.66-2.62-3.95-4.65-6.51-6.36-.35-.23-.75-.4-1.14-.56-.4-.16-.69-.06-.63.46.01.12,0,.23.01.35.24,3.7,1.18,7.19,3.08,10.4,1.57,2.66,3.62,4.81,6.2,6.47,1.79,1.15,3.02,2.79,3.35,4.89.43,2.66.61,5.37.89,8.06.01.12-.03.25-.05.39-1.02-.96-1.99-1.9-3-2.8-.43-.38-.6-.8-.58-1.37.04-1.38-.27-2.66-1.02-3.83-1.37-2.14-3.18-3.58-5.78-3.72-1.61-.08-2.7.87-2.75,2.41-.1,2.8,1.23,4.82,3.5,6.27,1.31.84,2.79.96,4.28.93.63-.01,1.19.12,1.65.56.97.94,1.96,1.86,2.89,2.85,1,1.07,1.78,2.26,2.07,3.77.21,1.08.54,2.15.91,3.19.89,2.49,1.83,4.95,2.75,7.43.09.25.13.52.2.79-.99-.57-1.6-1.41-2.1-2.33-2.01-3.72-4.9-6.55-8.52-8.62-2.02-1.16-4.22-1.88-6.4-2.63-.2-.07-.42-.07-.69-.11.03.25.02.4.06.55.07.26.15.52.25.78.9,2.22,2.22,4.18,3.74,6,2.61,3.11,6.06,4.8,9.83,6.01,2.73.88,4.9,2.4,5.46,5.59.75,4.3,1.86,8.5,3.34,12.61.32.87.25.94-.56,1.32-2.52,1.17-4.77,2.68-6.59,4.88-2.78,3.35-4.25,7.17-4.55,11.49-.17,2.51.17,4.97.95,7.36q.27.81,1.1.62c.13-.03.26-.07.39-.1.39-.09.55-.28.38-.71-.16-.39-.24-.82-.36-1.23-1.31-4.67-.77-9.12,1.57-13.36,1.84-3.33,4.58-5.65,7.93-7.29.44-.22.66-.15.89.32.86,1.78,1.71,3.57,2.67,5.29.9,1.62,2.03,3.07,3.56,4.16,2.39,1.69,5.14,2.21,7.95,2.49,3.56.35,7.1.17,10.64-.31,3.59-.49,7.13-1.25,10.58-2.35,2.29-.73,4.53-1.63,6.77-2.48,1.16-.44,2.28-.96,2.87-2.2.08-.17.31-.31.5-.37,2.05-.71,4.1-1.43,6.17-2.08,1.55-.49,3.22-.58,4.69-1.37.47-.25.98-.47,1.49-.62.24-.07.57-.03.79.1.96.54,1.84,1.23,2.84,1.67,1.83.8,3.72,1.47,5.59,2.18.79.3,1.47.71,1.74,1.57.26.82.83,1.35,1.56,1.7.66.32,1.34.59,2.03.82,2.2.76,4.38,1.6,6.61,2.23,3.6,1.01,7.3,1.57,11.03,1.79,3.22.19,6.42.14,9.54-.87,2.73-.89,5.04-2.41,6.78-4.71,1.12-1.48,2.08-3.08,3.09-4.64.25-.39.49-.68.94-.28.85.76,1.75,1.46,2.54,2.28,2.18,2.26,3.73,4.92,4.78,7.9,1.02,2.89,1.46,5.83,1.06,8.89-.16,1.19-.14,1.19.97,1.53.04.01.07.02.11.03.63.2.72.14.83-.51.66-3.9.05-7.68-1.34-11.29-1.71-4.45-4.48-8.14-8.48-10.79-.31-.2-.4-.38-.28-.76.7-2.22,1.46-4.43,2-6.69.59-2.43,1.12-4.89,1.38-7.37.24-2.31,1.09-4.11,3.05-5.28.97-.58,2.02-1.02,3.07-1.43,3.23-1.28,6.11-3.1,8.34-5.81,1.01-1.23,1.88-2.6,2.71-3.97.47-.79.78-1.69,1.07-2.57.25-.77.06-.95-.69-.72-2.27.69-4.42,1.66-6.46,2.89-2.02,1.22-3.78,2.74-5.19,4.63-1.02,1.37-1.92,2.84-2.83,4.3-.44.71-1.02,1.22-1.83,1.66.07-.35.09-.62.17-.87.5-1.59,1.04-3.17,1.52-4.76.56-1.85,1.04-3.73,1.6-5.59.25-.83.51-1.67.93-2.41.97-1.73,2.56-2.92,3.93-4.31.34-.34.7-.48,1.18-.46,2.33.12,4.43-.47,6.05-2.28,1.13-1.26,1.96-2.68,1.95-4.47-.01-1.88-1.01-2.82-2.87-2.86-1.9-.04-3.3.87-4.54,2.16-1.42,1.48-2.1,3.26-2.11,5.33,0,.38-.04.89-.28,1.13-1,1.01-2.08,1.93-3.17,2.93,0-.3-.02-.55,0-.79.11-1.2.21-2.4.35-3.6ZM153.03,55.32c-.76,3.03-2.38,5.51-4.65,7.55,1.12-2.79,2.8-5.23,4.65-7.55ZM147.2,39.26c-.13,3-.56,5.92-2.19,8.53.1-3,1.2-5.75,2.19-8.53ZM95.72,4.39c2.9,1.36,5.76,2.77,7.89,5.38-1.7-.31-5.89-3.15-7.89-5.38ZM104.07,19.33c2.02-.85,4.04-.88,6.08-.51-1.96.75-3.98.78-6.08.51ZM113.82,9.36c1.34,1.1,3.68,5.56,3.69,7.07-2.13-1.92-3.45-4.19-3.69-7.07ZM116.01,26.79c2.7-.08,5.13.51,7.39,1.84-2.56-.07-5.03-.52-7.39-1.84ZM125.69,14.22c1.99,2.66,1.91,5.71,2.17,8.67-1.27-2.7-2.18-5.5-2.17-8.67ZM126.34,37.58c.99-.15,3.88,1.17,5.08,2.35-1.03-.09-3.74-1.36-5.08-2.35ZM137.6,34.35c-.74-3.52-.4-7,.33-10.46.63,3.51.5,7-.33,10.46ZM131.61,49.4c-.57-.01-1.03-.46-1-.88.03-.46.34-.62.74-.63.38-.01.8.43.78.84-.02.38-.2.66-.52.67ZM137.76,64c1.12,1.02,2.56,3.48,3.01,5.96-1.32-1.8-2.51-3.67-3.01-5.96ZM20.33,63.59c-.69,2.43-1.61,4.73-3.42,6.55.57-2.49,1.63-4.71,3.42-6.55ZM26.41,47.88c.38,0,.73.35.73.75,0,.44-.51.95-.96.92-.45-.03-.59-.38-.64-.71,0-.56.37-.95.87-.96ZM31.49,37.43c-.6.94-3.98,2.55-5.51,2.57,1.75-1.29,3.45-2.3,5.51-2.57ZM41.68,26.89c-2.25,1.13-4.64,1.59-7.13,1.68,2.2-1.33,4.6-1.76,7.13-1.68ZM47.88,18.82c1.84-.29,3.66-.35,5.43.4-.01.09-.03.17-.04.26-1.8-.15-3.6-.29-5.4-.44,0-.07.01-.15.02-.22ZM61.22,4.53c-1.91,2.35-4.33,3.94-7.11,5.02,2.04-2.16,4.31-3.98,7.11-5.02ZM43.74,9.14c.23,1.9-2.42,6.87-3.79,7.14.87-2.58,1.71-5.15,3.79-7.14ZM31.76,14.97c-.15,2.96-.61,5.86-1.98,8.55-.16-3.03.75-5.82,1.98-8.55ZM19.67,24.04c.54,3.42.75,6.85.35,10.31-1.06-3.4-1.01-6.84-.35-10.31ZM10.54,39.43c1.37,2.78,2.05,5.59,2.52,8.6-1.21-.87-2.71-6.08-2.52-8.6ZM4.7,55.42c1.94,2.35,3.55,4.92,4.81,7.7-2.34-2.1-3.99-4.63-4.81-7.7ZM3.47,71.1c-.44,0-.86-.43-.82-.87.03-.41.17-.78.67-.77.43,0,.9.5.9.92,0,.38-.37.74-.75.73ZM7.55,87.2c2.58,1.21,4.88,2.79,6.57,5.15-2.61-1.17-4.71-2.99-6.57-5.15ZM124.89,64.56c-.4-2.72-1.85-4.9-3.52-6.97,1.82.91,4.39,3.52,3.52,6.97ZM94.07,90.09c-1.24-.95-2.49-1.91-3.35-3.26-1.05-1.66-1.57-3.49-1.57-5.47,0-1.81-.03-3.62-.02-5.43,0-.99.06-1.04.77-1.3.12.16.24.33.37.51-.58.29-.55.78-.52,1.3.03.45.15.59.12,1.05-.01.15-.31.45-.28.78.04.54.18.95.18,1.5,0,1.13-.1,2.4.53,3.44.05.08.06.19.05.28-.16,1.31.52,2.16,1.49,2.89.24.18.4.53.5.83.25.73.68,1.32,1.34,1.68.64.36,1.2.72,2.04.26.34.02.7.02.96-.39.02-.03.46.12.47.17.04.19.19.37.08.7-.08.23-.44.68-.69.73-.31.05-.73-.65-.98-.41-.37.36-.02.78.42.89.14.04.45-.04.44,0-.38,1.34,1.04,1.17,1.04,1.85,0,.34-.65.35-.87.54-.87.76-.87,1.69.04,2.38.41.31.47.57.12.87-.83.69-.8.73-.33,1.73.05.11-.13.28-.18.41-.33.89-.17,1.55.64,1.98.99.22.72.52.59,1.15-.15.78.31,1.36.89,1.78.36.26.88.24.89.96.25.35.57.36.85.18.12-.08.17-.5.08-.64-.29-.41-.85-.9-1.27-1.14-1.21-.46-.81-.97-.42-1.88.21-.49.43-1.01.48-1.53.08-.86-.31-1.54-1.07-1.98-.18-.1-.57-.1-.6-.32-.08-.54.75-.8,1.04-1.18.61-.82.66-1.72.07-2.54-.25-.36-.36-.44-.09-.73.4-.43.85-1.05.81-1.68-.03-.55-.28-.97-.77-1.21-.31-.15-.46-.32-.42-.71.05-.49.01-1-.47-1.23-.1-.05-.5.03-.56.06-.82.48-1.38-.42-1.12-.91.1-.18.6.26.71.06.29-.53-.54-.83-1.08-.76-.45.06-.59.04-.65-.39-.06-.41-.04-1.03-.25-1.38-.13-.22-.55-.48-.81-.52-.45-.08-.81-.09-.77-.55.02-.21.18-.61.22-.82.16-.81-.32-1.44-1.01-1.9-.37-.24-.44-.43-.21-.89.49-1.02.98-2.16.07-3.16-.1-.11-.07-.39-.02-.57.06-.2.22-.36.32-.55.32-.55.55-1.12.2-1.82.36-.07.66-.13.97-.19-.06,1.44-.18,2.83-.16,4.22.02,1.22.1,2.45.31,3.66.27,1.58,1.19,2.79,2.49,3.7.88.62,1.74,1.28,2.65,1.87,1.01.66,1.38,1.66,1.4,2.79.03,2.47-.01,4.94,0,7.42,0,.85.08,1.71.16,2.56.02.2.2.38.31.57.12-.18.31-.34.35-.53.48-2.58.9-5.17,1.41-7.74.26-1.33.64-2.63,1.02-3.93.24-.82.94-1.18,1.67-1.48,1.48-.6,2.99-1.12,4.41-1.83,2.26-1.13,4.05-2.77,5.05-5.19,1.15-2.79,2.35-5.56,3.51-8.34.15-.35.26-.71.7-.51.2.09.3-.1.5.2-.03.29.4,2.28.2,2.36-1.15.49-.13-1.19-.41-1.58-.2-.28-.6-.21-.64.34.02.38.02.88.14,1.24.12.38.14.67-.16.83-.9.45-1.28.85-1.05,1.83.07.29.23.4.28.71.2.44.87,1.14-.59,1.68-.11.04-.4-.23-.31-.54.09-.3.49-.73.36-.8-.32-.19-.97-.05-.85,1.58.07.33.49,1.5.31,1.92-.2.49-1.05,1.11-1.28.98-.77-.41,1.05-1.3.36-1.63-.72-.35-1,1.47-.97,2.51,0,.27-.15.78-.46.93-.02.01-.78.5-.64,0,.13-.47,1.02-.62.64-1.01-.43-.43-.89.59-1.1,1.19-.12.34-.24,1.01-.28,1.37-.05,1.09-.61.83-1.61.57.3-.18.59-.98,1.08-.73.17.09.31-.24.23-.44-.07-.19-.28-.21-.46-.21-.59,0-.99,1.02-1.31,1.45-.18.24-.4.06-.56.31-.17.26-.19.28-.28.58.05,1.23-.88,1.36-1.95.85.1-.52.89-.24.97-.26.34.05.55-.25.36-.55-.09-.14-.31-.2-.67-.14-.62.11-.69.95-1.35,1.36-.15.14-.25.44-.33.57-.41-.02-.8-.24-1.16-.24-.87.02-1.32.65-1.11,1.52.03.11,0,.27-.06.36-.95,1.21-.97,1.54-.15,2.89.03.05.04.11.07.2-.25.24-.55.47-.76.76-.55.74-.47,1.91.13,2.67.24.3.62.57.84.89.49.52.33.91-.43.75-.25.03-.5.02-.75.06-.71.1-1.1.52-1.13,1.25-.01.37-.03.76.06,1.1.25.92.27,1.64-.31,2.29-.56.62-2.05,1.66-1.69,2.22.15.24.51,0,.64-.09,1.01-.71,1.9-1.7,2.05-3.06.04-.34.25-.25.58-.34,1.21-.36,1.55-1.11,1.39-2.38-.02-.18.07-.33.2-.47.77-.49.7-1.32,0-1.84-.27-.2-.78-.27-.69-.67.05-.25.53-.27.67-.33,1.14-.5,1.38-1.73.52-2.66-.09-.1-.19-.19-.29-.29-.28-.29-.18-.47.13-.68.42-.28.79-.64,1.21-.93.22-.15.51-.21.75-.33.31-.15.65-.27.91-.48.57-.47,1.05-1.06,1.66-1.46.53-.35,1.2-.47,1.77-.75.4-.2.75-.53,1.13-.79,2.47-1.71,4.07-4.1,5.28-6.81,1.06-2.37,2.18-4.7,3.27-7.05.37-.8.72-1.63,1.15-2.4.11-.2.5-.24.76-.35.04.06.07.11.11.17-.37.86-.73,1.74-1.13,2.59-1.21,2.57-2.42,5.15-3.66,7.71-1.22,2.52-2.69,4.87-4.98,6.52-1.46,1.05-3.04,1.95-4.61,2.84-.83.47-1.35,1.1-1.47,2.02-.26,1.97-.49,3.94-.7,5.91-.21,1.94-1.05,3.45-2.68,4.54-1.09.73-2.13,1.53-3.16,2.34-.41.32-.74.72-1.04,1.02-1.34-1.46-2.67-2.88-3.97-4.33-.93-1.03-1.43-2.27-1.4-3.67.04-2.04.11-4.09.24-6.12.06-1-.27-1.68-1.06-2.28ZM90.42,75.28c.19.23.66.33.63.43-.06.22-.12.67-.31.82-.23.17-.52.21-.58.17.04-.28.5-.86.25-1.42ZM90.19,80.26c.02-.52.69-.28.86.52.13.63-.12,1.6-.61,1.48-.57-.15-.27-1.5-.25-2ZM90.3,78.14c.4-.19.47.13.65.52.23.5.48,1.13.13,1.17-.6.06-1.36-1.42-.79-1.69ZM91.07,83.8c.12-.06.33-.04.47.02.31.14.73.27.9.53.32.5.19,1.2-.1,1.37-.63.37-1.28-.81-1.46-1.51-.03-.13.12-.37.19-.41ZM92.34,83.27c-.34.21-.98-.11-1.11-.39-.12-.25.23-.43.25-.76.02-.32-.14-.64.19-.74.74-.21,1.43,1.43.67,1.89ZM91.78,78.47c-.31-.03-.68-.57-.88-.82-.06-.07-.03-.57.08-.64.09-.07.4-.03.42.06.13.45.72.91.63,1.22-.01.05-.2.18-.25.17ZM91.8,75.22c-.07.02-.32-.04-.38-.02-.15-.47-.52-.54-.96-.86.31-.41.88-.62,1.19-.44.31.38.27.79.16,1.31ZM93.22,86.77c.63.04,1.01.13,1.02.76,0,.23.13.57.12.8-.02.25-.23.29-.36.17-.3-.43-.76-.77-1.02-1.22-.15-.25-.04-.53.25-.51ZM93.35,84.52c.82.02,1.36,1.44.97,1.81-.11.11-.21-.12-.42-.21-.2-.08-.51-.01-.63-.23-.2-.35-.14-.88.09-1.36ZM94.81,87.17c.04-.09.18-.15.27-.12.41.12.6.64.56,1.23-.02.27-.36.39-.56.27-.36-.23-.46-1-.27-1.38ZM96.66,94.53c0-.47.51-.77.85-.76.35,0,.73.43.69.93-.04.46-.42.85-.73.82-.36-.04-.81-.41-.81-.99ZM97.31,98.3c.39-.07,1,.45.89,1.07-.06.25-.03.74-.41.8-.33.05-1.15-.18-1.02-1.03.12-.76.31-.79.54-.84ZM97.78,91.97c-.39,0-.78-.47-.79-.87-.02-.64.5-.89.8-.88.38.02.51.47.54.91.03.48-.22.82-.55.83ZM98.77,70.67c-.18-.45-.18-.65.3-.89,3.47-1.68,6.37-4.09,8.85-7.04.16-.19.3-.4.54-.71.13.74.21,1.38.35,2.01.6,2.6,2.21,4.35,4.6,5.37,1.02.44,2.09.76,3.23,1.16-.35,1-.66,2.05-1.09,3.04-.91,2.07-1.85,4.14-2.86,6.17-.97,1.94-2.72,2.94-4.67,3.64-2.3.84-4.66,1.3-7.11,1.15-1.65-.1-3.15-.65-4.48-1.63-.94-.69-1.31-1.76-1.37-2.85-.1-1.63-.04-3.26-.02-4.9,0-.25.11-.56.27-.74.71-.73,1.46-1.43,2.27-2.21.41.77.77,1.47,1.14,2.17.11.21.19.44.35.6.16.16.39.23.6.34.07-.19.21-.39.21-.58,0-1.47-.56-2.8-1.1-4.13ZM118.61,78.29c-.21.55-.56,1.4-.77,1.94-.07.01-1.03-.5-.56-1.19.38-.57,1.26-.8,1.33-.75ZM120.09,75.18c-.32.65-.68,1.46-.95,2.02-1.38-.52-.23-1.58.95-2.02ZM115.77,83.01c-.18,0-.56-.03-.56-.03,0,0,.05-.44.38-.78.33-.34,1.43-1.11,1.64-1.01.2.1.05.34-.2.7-.26.36-.28.9-.51,1.09-.14.12-.56.03-.74.03ZM115.87,83.73s-.2.36-.69.96c-.49.6-.72.6-.61.36.1-.23,0-1.35.23-1.48.23-.13,1.08.16,1.08.16ZM113.38,85.57s-.03-.8.15-1.14c.18-.34.67-.6.74-.62.08-.03.18,1.32,0,1.58-.18.26-.44.26-.59.26s-.31-.08-.31-.08ZM113.54,86.69c-.18.21-.29.44-.51.31-.23-.13-.04-.53.08-.65.42-.43.61.13.44.34ZM112.46,86.27c-.05,1.17-.65,1.3-1.9,1.61.15-1.74.8-1.79,1.9-1.61ZM109.54,88.42c-.16.21-.32.7-.51.73-.31.04-.83-.18-1.15-.29-.05-.02-.28-.08-.13-.47.06-.15.24-.33.36-.34.35-.03.86.09,1.22.11.35.05.18.19.22.25ZM107.18,90.5s-.12-1.07.41-.98c.29.05.55.27.85.36.18.58-.9.55-1.26.63ZM104.98,92.21c-.36-.29-.41-.71-.41-.93,0-.14.45-.46.59-.47.32-.02.82.1,1.13.36-.29.32-.52.39-.73.56-.14.12-.54.52-.58.48ZM105.08,93.71c.73.17.54.95.51,1.17-.05.44-.79.83-1.15.65-.17-.08-.47-.06-.38-.8.1-.86.76-1.07,1.02-1.01ZM104.95,89.95c-.09-.88.95-1.27,1.38-1.04.4.22.18.86.05,1.09-.37.68-.87-.23-1.43-.05ZM103.37,100.81c-.22-.08-.23-.59-.28-.88-.08-.45.31-1.06.85-1.04.19,0,.56.1.64.26.34.68-.36,1.92-1.2,1.66ZM121.14,73c-.15.42-.43,1.09-.56,1.48-.51-.16-.92-1.35.56-1.48ZM121.59,70.96c.4.14.13.54-.05.7-.32.28-.72.47-1.16.74-.14-.57-.25-1-.4-1.6.59.05,1.13,0,1.6.16ZM119.56,74.71s-.41.26-.72.49c-.31.23-.54.65-.72.73-.18.08-.28-.23-.23-.57.05-.34.76-1.07,1.36-1.11.69-.05.31.47.31.47ZM119.65,63.45c-3.3-1.69-4.91-4.13-4.85-8.95.58,1.56,1.01,3.31,1.84,4.83.83,1.52,2.05,2.83,3.01,4.12ZM111.46,37.58c1.54,1.35,2.85,2.88,3.44,4.94-.05.03-.09.07-.14.1-1.15-1.64-2.31-3.28-3.46-4.91.06-.04.11-.08.17-.13ZM106.44,39.37c1.6,4.09,5.16,6.27,8.36,8.82-4.39-.9-8.67-5.41-8.36-8.82ZM86.37,38.78c.97-1.39,2.32-2.08,4-2.2,2.11-.15,3.74.69,5.1,2.28,1.86,2.17,3.78,4.27,5.53,6.23-.61,0-1.47-.11-2.29.03-1.09.19-2.15.56-3.2.89-.26.08-.54.29-.67.52-.14.25-.23.69-.11.87.16.21.6.38.86.31.45-.11.85-.41,1.28-.63,1.58-.81,3.21-.96,4.9-.36.22.08.45.19.67.17.79-.08,1.28.38,1.78.88.37.37.73.75,1.13,1.08,1.27,1.08,1.94,2.5,2.11,4.13.18,1.72.25,3.45.42,5.17.17,1.77-.62,3.1-1.76,4.31-1.57,1.66-3.2,3.24-5.15,4.44-1.18.73-2.32,1.51-3.7,1.83-1.37.31-2.66.15-3.75-.76-3.37-2.79-5.9-6.19-7.18-10.44-.34-1.12-.46-2.31-.62-3.48-.12-.86-.12-1.74-.2-2.61-.03-.31.1-.39.36-.53.65-.37,1.12-.48,1.65.25.37.5,1.37.38,1.96-.07.26-.19.51-.4.79-.63.54.57.41,1.28.42,1.9.03,1.32-.06,2.64-.07,3.97,0,1.36,1.02,2.27,2.34,2.03.99-.18,1.96-.47,2.94-.73.17-.05.39-.18.45-.33.11-.25.13-.55.18-.83-.27-.03-.61-.19-.81-.08-.88.46-1.82.6-2.78.66-.76.05-.94-.09-.95-.88-.03-1.17.02-2.33.02-3.5,0-1.22-.05-2.43-.43-3.62-.53-1.65-1.63-2.52-3.36-2.54-1.05-.01-2.11-.08-3.26.52-.05-.6-.12-1.07-.14-1.55-.08-2.36.12-4.67,1.53-6.68ZM87.35,72.43v-3.67c.87,1.18,1.22,2.99,0,3.67ZM85.34,49.74c-.36-1.28-.25-1.53,1.08-1.78.7-.13,1.45-.16,2.16-.08.44.05.86.4,1.28.61-.03.07-.06.13-.08.2-.78,0-1.6-.14-2.34.04-.72.17-1.37.68-2.08,1.05.04.08,0,.02-.02-.04ZM80.97,61.23c.81-1.72,1.07-3.48.62-5.32-.62-2.5-.55-5.01-.34-7.54.1-1.22.25-2.43.39-3.74.23,1.62.36,3.16.7,4.65.4,1.77.95,3.51,1.49,5.24.94,3.04,1.91,6.07,1.82,9.31-.03.92-.15,1.87-.43,2.74-.56,1.76-.67,3.53-.52,5.35.16,2.02-.48,3.67-2.22,4.79-.51.33-1.01.69-1.54.98-.45.24-.86.05-.92-.43-.07-.51-.06-1.08.07-1.57.21-.74.57-1.44.85-2.16.66-1.71.48-3.37-.19-5.04-.41-1.02-.81-2.05-.83-3.19-.03-1.46.47-2.79,1.07-4.07ZM83.83,97.72c-.82.17-1.63.35-2.45.52-2.62.53-5.23,1.09-7.51,2.65-.64.44-1.42.68-2.17.94,1.49-3.78,8.69-6.92,12.12-4.11ZM75.19,78.9c-.03-.96-.1-1.93-.27-2.88-.15-.84-.48-1.64-.71-2.46-.53-1.91-.56-3.8.38-5.6.2-.39.53-.72.81-1.08.04.02.08.05.12.07-.12.36-.24.72-.35,1.09-.65,2.07-.43,4.08.34,6.08.46,1.2.78,2.45.67,3.76-.09,1.02-.39,1.96-1.13,2.76.06-.58.19-1.16.17-1.74ZM68.17,31.41c-1.93.16-3.74.71-5.38,1.7-1.6.97-3.12,2.07-4.59,3.06,1.13-3.06,6.88-5.91,9.97-4.77ZM53.1,48.83c0,.31-.04.63.01.93.04.2.19.44.35.52.12.06.39-.09.52-.22.17-.18.27-.42.38-.65.61-1.3,1.19-2.61,1.83-3.89.7-1.42,1.59-2.68,2.89-3.64,1.64-1.21,3.2-2.54,4.82-3.77.85-.65,1.89-.82,2.93-.96,1.27-.16,2.57-.24,3.81-.53,1.34-.31,2.19-1.29,2.63-2.61.04-.11.08-.21.12-.32.03,0,.07,0,.1.01.04.4.06.8.12,1.2.24,1.7,1.2,3,2.33,4.2.62.66,1.26,1.3,1.86,1.98,1.1,1.25,1.43,2.76,1.33,4.39-.04.71-.11,1.42-.18,2.24-.82-.72-1.67-1.05-2.65-1.16-2.56-.28-3.42.21-4.49,2.61-.76,1.71-.78,3.59-.91,5.43-.03.45-.04.89-.08,1.34-.06.65-.22.76-.86.65-1.07-.17-2.11-.42-3.02-1.04-.32-.22-.76-.36-.96.02-.12.22.04.75.25.96,1.29,1.3,2.94,1.51,4.64,1.4.29-.02.64-.31.82-.58.23-.34.4-.77.45-1.18.16-1.35.24-2.71.39-4.06.05-.42.16-.84.32-1.23.2-.48.47-.5.8-.11.95,1.13,1.72,1.2,2.78.22.24-.22.41-.23.63-.05.07.06.14.15.23.18.23.07.47.12.7.17-.01-.23.02-.47-.04-.69-.35-1.25-1.37-1.59-2.46-1.77-.56-.09-1.14-.07-1.77-.1.49-.52,1.02-.85,1.73-.85.94,0,1.82.19,2.67.61.44.22.65.52.56,1.01-.17.9-.32,1.79-.51,2.68-.35,1.61-.67,3.22-1.09,4.81-.44,1.65-1.39,3.05-2.33,4.44-1.63,2.43-3.71,4.41-5.99,6.21-2.47,1.96-5.8,1.41-7.73,0-2.88-2.1-4.95-4.86-6.53-8.02-.72-1.43-1.05-2.95-.98-4.57.06-1.45,0-1.49-1.31-2.07-.75-.33-1.01-.99-1.1-1.78-.12-1.06-.05-2.06.7-2.89.27-.3.58-.42.98-.28.4.14.33.47.33.77ZM64.7,86.97c-.7.69-.95,1.5-.56,2.47.04.1-.05.32-.15.38-.87.56-1,1.32-.64,2.23.02.05,0,.11,0,.26-1.03.2-1.28.99-1.26,2.03-1.04-.3-1.94-.3-2.47.95-.56-.93-1.21-1.53-2.27-1.22-.09-.37-.13-.68-.23-.97-.21-.55-.62-.86-1.18-1-.16-.04-.41-.25-.4-.36.15-1.17-.3-1.88-1.47-2.04q.12-1.61-1.34-2.58c.42-1.29.17-1.84-1.14-2.47.05-.55.41-.45.75-.37,1.91.48,3.85.76,5.82.71,1.88-.04,3.73-.22,5.28-1.49.32-.26.6-.58,1-.96-.05.71-.03,1.29.59,1.57-.95,1.3-1.01,1.88-.33,2.86ZM63.55,81.57c-.99,1.4-2.48,1.92-4.1,2.08-2.6.25-5.14-.06-7.61-.93-.25-.09-.49-.22-.74-.33-.5-.23-.88-.43-.53-1.15.27-.55-.05-1.07-.7-1.41-.37-.2-.52-.36-.38-.84.27-.87-.07-1.44-.9-1.81-.1-.05-.2-.11-.29-.16.45-1.53.35-1.76-1.11-2.63.53-1.43.48-1.59-.78-2.48.04-.6.22-1.19.06-1.67-.15-.45-.67-.78-.97-1.09.04-.62.07-1.27.15-1.9.03-.21.17-.46.34-.57.83-.56,1.72-1.03,2.53-1.62,1.35-.98,2.19-2.38,2.85-3.89.3-.69.59-1.39.89-2.09.06-.14.14-.26.28-.5.17.29.33.48.4.7.8,2.28,2.01,4.32,3.52,6.18,1.65,2.03,3.62,3.64,6.05,4.63.45.18.33.39.21.71-.56,1.5-1.13,3.01-1.64,4.53-.17.51-.2,1.07-.24,1.61-.01.18.14.36.22.55.15-.13.36-.22.43-.38.62-1.38,1.21-2.77,1.83-4.15.24-.52.55-1.01.87-1.58,1.06,1.45,1.08,3.02,1.1,4.58.03,2.06-.54,3.97-1.74,5.64ZM48.12,81.11c-.31-.18-.6-.34-.88-.52-4.22-2.8-6.76-6.85-8.38-11.59-.17-.49-.07-.73.44-.8,1.16-.17,2.31-.36,3.47-.52.15-.02.44.11.45.2.1.71.61,1.05,1.16,1.39-.55,1.61-.41,2.06.9,2.77-.07.18-.15.37-.22.56-.28.73-.03,1.48.67,1.83.41.21.55.4.37.89-.29.78-.03,1.37.72,1.74.35.17.43.32.31.71-.32.97-.11,1.44.78,1.89.27.14.37.27.25.59-.08.24-.04.53-.06.88ZM44.38,54.09c.1-1.53.08-3.09.35-4.59.36-1.96,1.47-3.47,3.17-4.57,1.4-.91,2.7-1.97,4.03-2.99.27-.21.47-.51.7-.76-.92,1.74-2.27,3.1-3.71,4.4-1.3,1.18-2.55,2.46-2.97,4.27-.16.71-.19,1.46-.24,2.2-.09,1.11-.09,2.22-.24,3.32-.4,2.84-1.9,4.87-4.53,6.01-.33.15-.66.31-.99.46-.06.03-.14.03-.28.07.7-.58,1.37-1.06,1.96-1.63,1.73-1.68,2.61-3.76,2.76-6.17ZM37.1,55.34c.72-.78,1.49-1.51,2.2-2.3.51-.56.94-1.2,1.41-1.81.15.69.09,1.38-.27,2.02-.9,1.62-2.56,2.29-3.93,3.33-.06-.05-.12-.11-.18-.16.25-.36.46-.76.76-1.09ZM50.81,126.3c-1.08.17-2.17.35-3.26.43-1.8.13-3.61.23-5.42.23-2.14,0-4.26-.22-6.34-.76-3.02-.78-5.38-2.47-6.99-5.22-1.7-2.91-3.1-5.94-4.15-9.15-1.53-4.68-2.8-9.42-3.36-14.33-.43-3.71-.8-7.43-.62-11.18.15-3.12.58-6.2,1.89-9.07.62-1.35,1.39-2.54,2.62-3.48,1.61-1.23,3.15-2.56,4.95-3.51,2.06-1.09,4.25-1.55,6.58-1.35.4.03.63.19.78.56.78,1.99,1.68,3.92,2.84,5.72,2.18,3.37,5.1,5.89,8.58,7.78.12.07.29.21.29.31-.02.97.5,1.51,1.37,1.76-.04.41-.11.77-.11,1.13,0,.62.29,1.02.89,1.2.36.11.56.2.4.68-.3.92.05,1.48.96,1.87.17.07.39.34.38.51-.07,1.34.22,1.73,1.51,1.98.05,0,.1.05.19.09-.03.17-.07.33-.09.5-.16.92.47,1.79,1.4,1.84.4.02.5.15.54.54.14,1.21,1.4,1.8,2.42,1.14.39-.25.64-.32,1.05.02,1.01.83,2.28.3,2.55-.98.04-.17.25-.38.41-.41,1.48-.31,1.8-.81,1.48-2.34-.02-.12.03-.31.12-.38,1.15-.83,1.23-1.18.61-2.41.36-.46.85-.83.97-1.31.12-.46-.14-1.02-.23-1.58.19-.37.6-.84.64-1.34.04-.5-.29-1.02-.48-1.63-.04.04.04-.04.13-.12.76-.71.82-1.54.09-2.29-.3-.3-.35-.58-.29-.98.21-1.58.38-3.17.58-4.75.03-.21.15-.41.23-.62.19.08.39.14.56.24.52.33.81.85.86,1.45.08,1.1.19,2.22.1,3.32-.14,1.74.48,2.96,1.99,3.79,1.54.85,1.66,2.3,1.46,3.85-.05.39-.12.77-.15,1.16-.12,1.44.5,2.47,1.75,3.14.19.1.37.21.56.31,1.41.73,1.69,1.98,1.24,3.6-.08.28-.35.58-.61.71-3.01,1.59-5.05,4.01-6.16,7.25-.26.75-.53,1.51-.71,2.28-.22.92-.83,1.45-1.66,1.7-1.31.39-2.63.74-3.96,1.02-3.13.67-6.3,1.07-9.5,1.16-2.38.07-4.76-.07-7.15-.14-.83-.02-1.15-.29-1.32-1.11-.73-3.4-1.5-6.8-2.13-10.22-.48-2.62-.7-5.28-1.12-7.91-.61-3.76-1.68-7.36-4.03-10.43-.54-.7-1.2-1.31-1.84-1.92-.21-.2-.54-.28-.81-.42-.03.05-.07.1-.1.15.07.12.14.26.22.37,2.85,3.73,4.59,7.93,5.21,12.6.41,3.08.77,6.18,1.27,9.25.38,2.32.95,4.61,1.43,6.91.06.3.1.6.15.93-3.31-.3-6.5-.29-9.37,1.56-.32.21-.56.55-.83.84.03.06.06.12.09.18.18-.02.38,0,.55-.07,2.07-.78,4.2-1.29,6.42-1.28.82,0,1.64.15,2.45.29.19.03.35.3.52.47-.18.12-.35.3-.55.36-1.54.43-3.08.9-4.42,1.8-.78.52-1.46,1.19-2.18,1.8-.11.09-.17.24-.25.36.03.05.06.1.08.15.6-.26,1.21-.49,1.8-.78,2.28-1.12,4.64-2.02,7.18-2.21,1.28-.1,2.57-.04,3.86.02.81.04.93.19,1.02,1.04.09.85.15,1.71.19,2.56.14,3.29,1.11,6.39,2.21,9.45.05.13.1.25.14.38.21.64.11.85-.57.96ZM66.18,121.82c-1.22.47-2.42,1.02-3.67,1.4-2.76.83-5.54,1.59-8.32,2.37-.79.22-.84.21-1.2-.55-.98-2.06-1.74-4.2-2.19-6.44-.3-1.5-.44-3.03-.64-4.55.03,0,.07-.01.1-.02,0-.53-.03-1.05.02-1.57.02-.17.21-.42.36-.45.45-.09.92-.07,1.37-.12,3.02-.32,6.03-.65,9.05-.97.5-.05.99-.1,1.49-.16.38-.05.54.13.54.49.02,3.11,1.34,5.79,2.72,8.44.22.43.42.88.66,1.29.26.44.12.68-.3.84ZM80.73,115.67c-1.63.63-3.32,1.09-5.02,1.51-2.47.61-4.88,1.39-7.18,2.52-.77.38-.83.36-1.25-.41-1.28-2.39-2.39-4.84-2.7-7.58-.02-.15-.03-.31-.04-.39,0-1.01.11-1.2,1-1.53.56-.21,1.12-.4,1.69-.59.85-.28,1.37-.83,1.62-1.73.34-1.23.8-2.43,1.2-3.65.17-.51.47-.75,1.03-.69,1.14.14,2.12-.37,3.04-.92,2.56-1.52,5.34-2.37,8.23-2.88.96-.17,1.85-.49,2.66-1.06.22-.16.56-.31.79-.25.31.08.68.31.82.58.08.16-.15.64-.37.79-1.04.69-2.11,1.36-3.2,1.96-1.06.58-2.17,1.07-3.25,1.61-.18.09-.37.24-.45.41-.09.18-.14.49-.05.63.09.13.43.21.6.15.89-.31,1.81-.57,2.63-1.02,1.65-.91,3.25-1.92,4.85-2.91.78-.48,1.36-.55,1.73-.13.34.38.25,1.14-.27,1.76-1.3,1.55-2.91,2.7-4.62,3.73-.51.31-1.02.62-1.48,1-.15.13-.13.46-.19.7.25.02.53.14.74.06,2.05-.81,3.84-2.04,5.49-3.49.39-.34.75-.72,1.12-1.09.36-.36.69-.24.78.17.09.41.12.91-.04,1.28-.66,1.63-1.79,2.89-3.27,3.81-.82.51-1.65,1-2.47,1.5-.16.1-.36.21-.43.37-.09.19-.13.46-.06.63.05.11.4.19.54.12.92-.42,1.84-.87,2.73-1.35,1.29-.7,2.3-1.73,3.26-2.84.16-.18.38-.53.69-.46.32.07.18.6.18.86,0,1-.59,1.75-1.17,2.47-.94,1.18-2.2,1.99-3.42,2.83-2.04,1.41-4.21,2.6-6.51,3.48ZM94.46,119.97c-1.78-.72-3.59-1.36-5.39-2.04-1.57-.59-3.05-1.37-4.32-2.39,1.66-1.1,3.31-2.12,4.87-3.27.89-.66,1.66-1.49,2.43-2.3.3-.32.48-.33.86-.15,1.15.52,2.32,1.03,3.52,1.42.86.28,1.29.73,1.42,1.65.34,2.36-.31,4.46-1.52,6.43-.05.08-.11.16-.17.24-.65.82-.75.8-1.7.42ZM100.5,123.78c-.04.12-.27.28-.35.25-1.37-.49-2.73-1-4.06-1.82.37-.51.66-.95.99-1.35,1.83-2.29,2.59-4.9,2.28-7.83q-.12-1.13,1.01-1.01c.82.09.82.09.92.93.38,2.97.32,5.93-.2,8.88-.12.66-.36,1.31-.58,1.95ZM102.62,124.67c-.28.12-.88.05-1-.14-.28-.46-.03-.98.2-1.55.22.31.35.56.55.72.18.14.44.18.67.27-.05-.23-.08-.46-.17-.67-.08-.19-.25-.34-.35-.52-.04-.08-.02-.29.03-.31.1-.04.32-.06.36,0,.28.43.72.88.72,1.33,0,.31-.6.7-1,.87ZM104.62,117.07c-.06-.06-.07-.25-.03-.31.42-.54.85-1.07,1.29-1.6.08.04.15.07.23.11v3.22c-.54-.51-1.02-.96-1.49-1.43ZM105.87,120.03c-.72-.54-1.14-1.24-1.49-2,.53.31,1.11.56,1.56.97.17.15.03.67-.07,1.03ZM105.62,114.31c-.26-.34-.5-.69-.77-1.01-.23-.28-.49-.53-.8-.87.59,0,1.07,0,1.55,0,.08,0,.21.09.22.16.07.52.11,1.04.16,1.56-.12.05-.24.11-.35.16ZM104.74,114.36c.3.27.29.51.04.79-.23.25-.45.51-.67.76-.67-.44-.68-.54-.33-1.14.08-.15.03-.38.03-.57-.19,0-.42-.05-.57.03-.83.46-.82.47-.91-.51-.04-.46-.1-.92-.16-1.49.36.03.64.05.86.06.09.23.11.46.24.59.47.51.96,1,1.47,1.47ZM103.66,116.82c-.33.29-.68.55-1.02.82-.06-.03-.12-.07-.18-.1v-2.04c.35.04,1.24.72,1.29,1.02.02.1-.03.24-.1.31ZM102.44,119.5c.2.22.35.38.49.55.22.25.4.73.8.43.44-.33-.07-.63-.23-.85-.23-.3-.59-.49-.96-.67-.16-.41-.11-.71.5-.8.36-.05.67-.36,1.08-.6.06.12.15.28.23.43-.79.17-.92.52-.45,1.14.07.09.15.18.22.27.67.89.65.94-.25,1.55-.47.32-.93.67-1.4,1.01-.13.09-.28.17-.53.33.18-.99.33-1.84.51-2.79ZM105.07,125.47c-.42-.17-.77-.31-1.26-.51.56-.37,1.02-.67,1.47-.97.04.04.09.08.13.11-.11.43-.22.86-.35,1.36ZM105.28,123.27c-.65.39-.78.33-1.14-.36-.15-.29-.3-.57-.45-.85.74-.48,1.44-.94,2.17-1.42.04.08.11.17.11.24-.08.61-.14,1.23-.27,1.83-.04.21-.23.44-.41.56ZM107.09,125.39c-.13.65-.58.39-.95.34-.45-.07-.3-.38-.22-.62,1.15-3.72.98-7.53.78-11.34-.02-.4-.06-.8-.09-1.19.98-.22,1.13-.16,1.25.74.44,3.08.4,6.16-.2,9.23-.19.95-.38,1.9-.58,2.86ZM107.73,126.02c.09-.34.16-.64.28-1.09.26.38.46.66.76,1.09h-1.04ZM110.2,115.06c-.06-.21-.06-.43-.09-.64.19.04.44.03.55.14.21.23.35.53.58.91-.38.4-.72.78-1.08,1.13-.03.03-.21-.04-.29-.1-.19-.16-.4-.31-.54-.51-.11-.14-.13-.35-.18-.53.16.06.33.11.49.18.18.08.36.2.55.24.08.01.29-.18.27-.23-.05-.2-.19-.38-.25-.58ZM109.12,119.64c.06.06.12.13.19.19.15.13.35.38.45.35.25-.09.44-.31.66-.48-.12-.13-.24-.25-.35-.38-.11-.14-.29-.28-.3-.43,0-.13.19-.38.28-.38.17.01.39.13.5.27.72.95.58,1.38-.78,2.35-.27-.49-.52-.94-.77-1.38.04-.04.08-.07.12-.11ZM108.91,118.62v-1.57c.06-.04.13-.08.19-.11.21.29.55.58.57.89.01.21-.42.45-.76.79ZM109.56,114.02c-.18.15-.4.26-.6.39-.08-.2-.18-.4-.23-.61-.07-.32-.09-.64-.13-.96.05-.03.09-.06.14-.09.26.18.53.36.78.55.29.22.33.48.04.72ZM108.7,121.14c.5.4.92.8.84,1.26-.06.32-.59.54-.91.81-.07-.04-.13-.08-.2-.13.08-.6.17-1.21.27-1.95ZM108.53,124.13s.05-.07.07-.11c.16.12.3.28.48.34.24.08.51.1.77.09.03,0,.12-.43.06-.47-.56-.36-.21-.72-.07-1.08l.18-.08c.19.43.56.87.54,1.29-.04.7-.72.97-1.3,1.36-.26-.48-.5-.91-.74-1.34ZM137.94,93.9c-.07,1.96-.32,3.91-.59,5.86-.35,2.52-.69,5.04-1.23,7.52-.93,4.22-2.16,8.35-4.37,12.11-1.71,2.92-3.91,5.32-7.11,6.55-1.26.48-2.62.83-3.96.97-3.48.37-6.95.25-10.39-.5-.11-.02-.21-.07-.44-.14.23-.24.39-.43.57-.6.37-.34.75-.67,1.11-1.02.33-.32.32-.67.08-1.05-.32-.53-.63-1.06-.91-1.61-.06-.11.02-.37.12-.48.41-.46.88-.88,1.28-1.34.12-.14.22-.47.14-.59-.45-.73-.96-1.42-1.52-2.22.36-.4.75-.9,1.2-1.33.37-.36.48-.65.07-1.06-.27-.27-.52-.58-.73-.9-.24-.37-.44-.78-.65-1.17.04-.04.07-.08.11-.13h-.92c2.54-.35,5.08-.36,7.63-.15,2.6.21,4.94,1.37,7.43,2.05-.2-.61-.66-.93-1.11-1.26-1.34-.99-2.87-1.55-4.48-1.94-.6-.15-1.18-.36-1.78-.54,0-.09,0-.17.01-.26.63-.12,1.25-.29,1.88-.34,2.37-.2,4.68.11,6.9,1.04.27.11.65.27.93.34.03-.06-.55-.84-.86-1.06-1.36-.97-2.89-1.49-4.53-1.56-1.36-.06-2.72.06-4.09.1-.15,0-.3,0-.58,0,.21-.8.43-1.53.61-2.28.58-2.38,1.14-4.76,1.74-7.14.53-2.1,1.07-4.2,1.64-6.3.62-2.26,1.28-4.5,1.92-6.76.05-.17.11-.34.09-.51-.04-.39-.32-.5-.59-.24-.21.19-.42.42-.53.68-.8,1.93-1.62,3.84-2.33,5.8-1.08,3-1.25,6.22-1.98,9.31-.55,2.3-1.25,4.57-1.89,6.85-.14.49-.32.96-.49,1.43-.2.55-.58.81-1.18.83-4.62.21-9.24.22-13.83-.36-1.76-.22-3.56-.42-5.22-1.16-.6-.27-1.13-.71-1.69-1.07-.36-.24-.43-.59-.33-.98.24-.94-.02-1.71-.65-2.42-.19-.21-.32-.56-.31-.84.07-1.09-.38-1.91-1.15-2.62-.19-.17-.38-.29-.4-.54-.09-1.19-.66-2.17-1.84-2.35-.89.04-.82-.27-1.06-.68-.46-.76-1.16-1.03-2.01-1.12-.28-.03-.55-.2-.83-.29-1.17-.37-2.29-1.1-3.51-1.09-.68,0-.72-.23-.68-.7.24-2.6.45-5.26.81-7.84.31-2.29.83-4.54,1.31-6.8.19-.91.7-1.67,1.48-2.17.48.22.9.41,1.31.6.79.37.9,1.04.24,1.64-.14.13-.35.17-.49.3-.17.16-.4.34-.43.54-.02.14.23.35.39.5.18.17.42.28.57.47.43.53.38.9-.16,1.33-.37.3-.8.56-1.11.92-.7.79-.51,1.65.45,2.08.41.19.89.24,1.33.36.74.19.92.61.55,1.3-.16.29-.34.57-.5.86-.35.64-.32,1.19.07,1.55.46.42,1.24.47,1.77.11.15-.1.3-.22.6-.29-.03.28-.01.58-.1.84-.12.35-.34.65-.47,1-.32.83.1,1.49.99,1.53.28.01.58-.01.85-.09.12-.03.23-.23.26-.37.01-.06-.19-.18-.31-.25-.06-.03-.16,0-.23-.02-.25-.09-.7-.17-.71-.29-.03-.32.13-.65.18-.85.51.27.89.52,1.3.67.64.23.79.47.57,1.13-.07.2-.14.4-.2.61-.22.79-.15.96.53,1.39.18.11.47.38.44.44-.12.24-.33.44-.54.63-.09.08-.28.05-.37.13-.13.11-.31.3-.29.43.02.12.27.32.4.3.52-.06.8.29,1.01.63.13.21.11.57.05.84-.16.68-.44,1.34-.56,2.03-.04.21.25.52.45.72.12.12.35.14.54.19.85.23.94.37.76,1.23-.03.15-.06.31-.07.46-.02.35.12.58.49.56.38-.02.38-.28.36-.58-.02-.33-.06-.68.05-.98.17-.45-.04-.71-.34-.95-.18-.14-.41-.22-.62-.3-.81-.32-.82-.33-.57-1.2.09-.3.19-.59.29-.88.23-.71.16-1.37-.41-1.87-.37-.33-.27-.54.01-.85.57-.62.45-1.06-.33-1.4-.6-.26-.71-.8-.2-1.31.1.2.16.41.29.55.13.13.34.17.51.25.07-.18.21-.37.2-.55-.01-.17-.14-.42-.28-.48-.53-.24-.62-.72-.8-1.19-.31-.8-1.05-.91-1.75-1.02-.37-.06-.53-.19-.51-.6.06-1.08-.4-1.79-1.42-2.1-.49-.15-.6-.3-.37-.8.43-.93-.3-1.99-1.31-2.03-.41-.02-.84-.1-1.23-.25-.51-.2-.55-.51-.15-.87.24-.22.52-.39.87-.65-.06.55-.44,1.1.23,1.32.16.05.48-.16.62-.34.39-.52,0-.85-.44-1.2.88-1.04.44-1.94-.44-2.83.19-.13.31-.22.44-.31.74-.49.9-1.19.6-1.98-.11-.3-.37-.55-.6-.78-.16-.15-.41-.19-.62-.31-.59-.33-.62-.59-.05-.95.56-.36,1.16-.64,1.75-.96,0,1.3-.08,2.51.02,3.7.19,2.29.15,4.63,1.16,6.79.87,1.86,2.27,3.23,3.84,4.43.87.67,1.27,1.35,1.17,2.48-.15,1.74-.16,3.5-.17,5.25-.01,2.14.86,3.89,2.38,5.37.92.9,1.78,1.88,2.61,2.87.31.37.48.88.69,1.34.25.56.88.75,1.18.26,1.24-2,3.29-3.01,5.1-4.29,1.56-1.1,2.47-2.54,2.73-4.4.29-2,.51-4.01.73-6.03.08-.73.46-1.12,1.06-1.45,2.85-1.57,5.76-3.07,7.72-5.84,1.32-1.87,2.31-3.93,3.26-6.01,1.31-2.85,2.65-5.67,3.97-8.52.23-.5.5-.5.9-.23-.02.44-.85.67-.32,1.19.14.14.48.16.72.12.66-.11.55-.68.58-1.19.49.06.73.3.76.78.03.49-.3.58-.65.64-.43.08-.87.15-1.31.21-.65.09-.85.42-.62,1.05.12.32.28.73.44,1.13-.57-.12-1.14-.39-1.37.21-.07.18.17.6.38.73.58.38.79-.3,1.21-.56.15.16.35.28.41.46.08.24.15.62.03.75-.15.16-.52.18-.77.14-.52-.09-1.02-.32-1.54-.38-.61-.07-.87.34-.69.93.03.11.1.21.15.32.4.81.39.84-.48,1-.85.16-1.41,1.06-1.16,1.96.12.44.36.84.56,1.26.12.26.29.5.39.77.15.4-.01.67-.44.66-.46-.01-.92-.09-1.37-.15-.76-.1-1.13.13-1.32.86-.09.35-.1.74-.22,1.07-.12.32-.26.89-.52,1.05-.28.17-.61-.29-.89.24-.09.11-.02.59.21.7.26.13.6-.41.96-.55.02.13.07.61-.02.8-.06.14-.38.16-.59.22-.05.02-.11,0-.17,0-1.43-.06-1.66.17-1.64,1.58,0,.06-.02.11-.09.04-.29.12-.64.19-.84.4-.26.26.04.6.2.68.51.28.53-.57.85-.79.17.5.39,1.18.5,1.68.09.38-.43,1.23-.78.78-.17-.22.26-.5.13-.75-.18-.34-.5-.5-.88-.58-1.08-.25-1.75.25-1.91,1.35-.14.97-.36,1.1-1.28.76-.78-.29-1.89.35-2.08,1.2,0,.04-.02.08-.02.12.08.98.32,1.58-.85,2.28-.17.12-.21.83-.16,1.14.07.49.36.93-.14,1.42-.17.17-.06.74.07,1.08.18.49.42.84-.19.98-.7.16-1.09.45-.92,1.18.1.43.25.86.34,1.3.11.56-.1.84-.66.82-.4-.01-.8-.1-1.18-.21-1.12-.32-1.88.16-2.09,1.33-.07.4-.15.8-.24,1.19-.09.37.09.56.45.46.39-.11.51-.42.55-.8.16-1.52.16-1.5,1.63-1.25.49.08,1,.09,1.49.05.6-.05.84-.37.81-.99-.03-.56-.13-1.14-.2-1.7-.05-.44.09-.69.59-.72.29-.01.6-.04.84-.18.23-.13.55-.35.55-.64.01-.72-1.09,0-1.11-.13-.07-.39-.34-1.42.03-1.72.21-.17.45,0,.57.07.49.31.88.31,1.25-.12.39-.45.45-1.06.21-1.57-.28-.59-.52-1.21-.75-1.82-.03-.09.02-.22.05-.4.25.1.46.19.67.25.48.13.96.31,1.45.37.93.11,1.52-.54,1.44-1.49-.05-.58-.08-1.16-.09-1.75-.02-.75.42-1.37.95-.78.53.6.4,1.2,1.29,1.1.69-.07,1.27-.7,1.23-1.38-.02-.29-1.03-2.37-.62-2.76.3-.24,1.05-.2,1.49-.26.07,0,.36.13.36.23,0,.11-.28.26-.36.32-.1.06-.74.12-.57.66.04.14.34.3.51.29.84-.07,1.62-1.57,1.21-2.28-.22-.38-.35-1.13-.39-1.58-.02-.18.29-.35.41-.54.06.03.11.28.17.32-.03.22-.09.44-.09.66,0,.17.05.43.16.49.15.09.42.09.58,0,.47-.21.56-.88.21-1.35-.15-.2-.38-.34-.5-.56-.1-.18-.15-.44-.11-.64.01-.08.32-.14.49-.15.38-.02.77.02,1.15,0,1.26-.09,1.57-1.03,1.15-2.07-.21-.52-.52-1-.71-1.52-.19-.53.62-1.35,1.16-1.18.1.03.14.32.18.5,0,.03-.1.11-.17.14-.26.13-.58.24-.46.62.05.16.27.34.37.37.35.1.6-.16.77-.36.4-.61.54-1.04.16-1.84-.19-.4-.23-.88-.35-1.36.49.11.88.28,1.27.27,1.42-.03,1.97-1.08,1.21-2.29-.33-.53-.67-1.04-.58-1.63.63-.2,1.25-.29,1.76-.58.6-.34.74-.95.33-1.7,2.26.73,4.12,1.82,5.52,3.6,1.54,1.96,2.51,4.17,3.07,6.62.9,3.91,1.01,7.86.86,11.83ZM87.48,88.71c.21.23.37.45.57.62.25.23.14.43-.1.45-.27.02-.61-.02-.83-.18-.21-.15-.01-.59.36-.9ZM113.93,94.94c-.15.13-.46.15-.66.09-.57-.15-1.12-.36-1.67-.57-.13-.05-.32-.21-.32-.32,0-.14.15-.31.28-.39.43-.25.9-.09,1.05.37.15.47.4.42.66.15.21-.21.37-.47.55-.71.29.34.38,1.15.11,1.38ZM111.45,98.48c-.99.5-1.29-.83-1.2-1.41.03-.2.14-.51.36-.54.19-.03.38.21.43.36.16.48.26.98.41,1.59ZM150.76,87.18c-1.35,2.28-3.49,3.49-5.55,4.79,1.58-1.88,3.37-3.51,5.55-4.79ZM153.5,70.25c.02-.42.45-.84.86-.85.36,0,.75.42.74.81-.01.44-.42.81-.87.81-.46,0-.75-.32-.72-.77Z" fill="#a27300"/></svg>